<?xml version="1.0"?>
<svg xmlns="http://www.w3.org/2000/svg" xmlns:xlink="http://www.w3.org/1999/xlink" xmlns:svgjs="http://svgjs.com/svgjs" version="1.1" width="512" height="512" x="0" y="0" viewBox="0 0 512 512" style="enable-background:new 0 0 512 512" xml:space="preserve"><g><g xmlns="http://www.w3.org/2000/svg"><path d="m448.531 78.649c-1.01-7.437-7.359-12.983-14.864-12.983h-61.667v-35.666h12.25c8.284 0 15-6.716 15-15s-6.716-15-15-15c-6.333 0-244.767 0-256.5 0-8.284 0-15 6.716-15 15s6.716 15 15 15h12.25v35.667h-61.667c-7.505 0-13.854 5.546-14.864 12.983-.276 2.037-6.442 50.251 22.102 81.259 14.128 15.349 33.673 23.563 58.211 24.502 8.211 31.308 29.207 57.494 57.051 72.611v64.312h-45.833c-8.284 0-15 6.716-15 15v145.666h-12.25c-8.284 0-15 6.716-15 15s6.716 15 15 15h256.5c8.284 0 15-6.716 15-15s-6.716-15-15-15c-9.352 0-11.209 0-11.512 0-.036 0-.052 0-.054 0-.08 0-.268 0-.684 0v-145.667c0-8.284-6.716-15-15-15h-45.833v-64.312c27.844-15.117 48.84-41.303 57.051-72.611 24.536-.94 44.084-9.155 58.211-24.502 28.545-31.007 22.379-79.221 22.102-81.259zm-308.531 75.427c-13.857-1.383-24.678-6.193-32.271-14.392-11.81-12.75-14.569-31.54-14.956-44.018h47.227zm202 197.257v130.667h-172v-130.667zm-111.167-30v-50.333h50.334v50.333zm111.167-166.333c0 47.42-38.579 86-86 86s-86-38.58-86-86v-125h172zm30-.923v-58.41h47.203c-1.052 32.541-14.527 55.149-47.203 58.41z" fill="#ffffff" data-original="#000000" style=""/><path d="m218.667 431.667h74.666c8.284 0 15-6.716 15-15s-6.716-15-15-15h-74.666c-8.284 0-15 6.716-15 15s6.716 15 15 15z" fill="#ffffff" data-original="#000000" style=""/></g></g></svg>
