<?xml version="1.0"?>
<svg xmlns="http://www.w3.org/2000/svg" xmlns:xlink="http://www.w3.org/1999/xlink" xmlns:svgjs="http://svgjs.com/svgjs" version="1.1" width="512" height="512" x="0" y="0" viewBox="0 0 24 24" style="enable-background:new 0 0 512 512" xml:space="preserve"><g><path xmlns="http://www.w3.org/2000/svg" d="m.856 20.081c-.076 0-.119-.001-.127-.001-.414-.012-.74-.357-.729-.77.012-.415.345-.75.77-.729.044 0 4.206.091 8.768-1.612 6.033-2.252 9.888-6.424 11.456-12.399.105-.4.513-.639.916-.535.4.105.64.515.535.916-3.87 14.748-19.986 15.13-21.589 15.13z" fill="#ffffff" data-original="#000000" style=""/><path xmlns="http://www.w3.org/2000/svg" d="m23.25 8.098c-.064 0-.13-.008-.194-.025l-4.098-1.098c-.293-.079-.51-.326-.549-.627-.04-.3.106-.596.369-.747l2.598-1.5c.357-.207.817-.085 1.024.274l1.5 2.598c.152.263.13.591-.054.832-.145.188-.367.293-.596.293z" fill="#ffffff" data-original="#000000" style=""/><path xmlns="http://www.w3.org/2000/svg" d="m21.75 24c-.552 0-1-.448-1-1v-12c0-.552.448-1 1-1s1 .448 1 1v12c0 .552-.448 1-1 1z" fill="#ffffff" data-original="#000000" style=""/><path xmlns="http://www.w3.org/2000/svg" d="m15.75 24c-.552 0-1-.448-1-1v-5c0-.552.448-1 1-1s1 .448 1 1v5c0 .552-.448 1-1 1z" fill="#ffffff" data-original="#000000" style=""/><path xmlns="http://www.w3.org/2000/svg" d="m9.75 24c-.552 0-1-.448-1-1v-2c0-.552.448-1 1-1s1 .448 1 1v2c0 .552-.448 1-1 1z" fill="#ffffff" data-original="#000000" style=""/><path xmlns="http://www.w3.org/2000/svg" d="m3.75 24c-.552 0-1-.448-1-1v-.5c0-.552.448-1 1-1s1 .448 1 1v.5c0 .552-.448 1-1 1z" fill="#ffffff" data-original="#000000" style=""/><path xmlns="http://www.w3.org/2000/svg" d="m9.5 12.989h-9c-.276 0-.5-.224-.5-.5v-1.171c0-.668.26-1.296.732-1.768l1.268-1.268v-2.842c0-1.207.405-2.398 1.141-3.354l1.463-1.901c.189-.246.604-.246.793 0l1.463 1.902c.735.955 1.14 2.146 1.14 3.353v2.842l1.268 1.268c.472.472.732 1.1.732 1.768v1.171c0 .277-.224.5-.5.5z" fill="#ffffff" data-original="#000000" style=""/><path xmlns="http://www.w3.org/2000/svg" d="m7.5 14.989c-.553 0-1-.448-1-1v-1.5c0-.552.447-1 1-1s1 .448 1 1v1.5c0 .553-.447 1-1 1z" fill="#ffffff" data-original="#000000" style=""/><path xmlns="http://www.w3.org/2000/svg" d="m2.5 14.989c-.553 0-1-.448-1-1v-1.5c0-.552.447-1 1-1s1 .448 1 1v1.5c0 .553-.447 1-1 1z" fill="#ffffff" data-original="#000000" style=""/></g></svg>
